<mxfile host="Electron" modified="2024-07-31T01:41:38.596Z" agent="Mozilla/5.0 (Windows NT 10.0; Win64; x64) AppleWebKit/537.36 (KHTML, like Gecko) draw.io/24.6.4 Chrome/124.0.6367.207 Electron/30.0.6 Safari/537.36" etag="LpgztDhjqnJrmHHWUETr" version="24.6.4" type="device">
  <diagram name="组织结构" id="zcFrJlQE9c2y0M_mj8XR">
    <mxGraphModel dx="1836" dy="968" grid="1" gridSize="10" guides="1" tooltips="1" connect="1" arrows="1" fold="1" page="0" pageScale="1" pageWidth="827" pageHeight="1169" math="0" shadow="0">
      <root>
        <mxCell id="0" />
        <mxCell id="1" parent="0" />
        <mxCell id="d1k2A2u6-uFPQRD3uo2n-2" value="运算器" style="rounded=0;whiteSpace=wrap;html=1;fontStyle=1;align=left;verticalAlign=top;fillColor=#fa6800;fontColor=#000000;strokeColor=#C73500;" vertex="1" parent="1">
          <mxGeometry x="80" y="750" width="500" height="200" as="geometry" />
        </mxCell>
        <mxCell id="d1k2A2u6-uFPQRD3uo2n-9" value="控制器" style="rounded=0;whiteSpace=wrap;html=1;fontStyle=1;align=left;verticalAlign=top;fillColor=#f0a30a;fontColor=#000000;strokeColor=#BD7000;" vertex="1" parent="1">
          <mxGeometry x="80" y="210" width="500" height="200" as="geometry" />
        </mxCell>
        <mxCell id="d1k2A2u6-uFPQRD3uo2n-17" value="" style="edgeStyle=orthogonalEdgeStyle;rounded=0;orthogonalLoop=1;jettySize=auto;html=1;dashed=1;dashPattern=8 8;" edge="1" parent="1" source="d1k2A2u6-uFPQRD3uo2n-11" target="d1k2A2u6-uFPQRD3uo2n-12">
          <mxGeometry relative="1" as="geometry" />
        </mxCell>
        <mxCell id="d1k2A2u6-uFPQRD3uo2n-11" value="指令寄存器 IR" style="rounded=1;whiteSpace=wrap;html=1;" vertex="1" parent="1">
          <mxGeometry x="270" y="240" width="120" height="60" as="geometry" />
        </mxCell>
        <mxCell id="d1k2A2u6-uFPQRD3uo2n-18" value="" style="edgeStyle=orthogonalEdgeStyle;rounded=0;orthogonalLoop=1;jettySize=auto;html=1;dashed=1;dashPattern=8 8;" edge="1" parent="1" source="d1k2A2u6-uFPQRD3uo2n-12" target="d1k2A2u6-uFPQRD3uo2n-15">
          <mxGeometry relative="1" as="geometry" />
        </mxCell>
        <mxCell id="d1k2A2u6-uFPQRD3uo2n-12" value="指令译码器 ID" style="rounded=1;whiteSpace=wrap;html=1;" vertex="1" parent="1">
          <mxGeometry x="430" y="240" width="120" height="60" as="geometry" />
        </mxCell>
        <mxCell id="d1k2A2u6-uFPQRD3uo2n-16" value="" style="edgeStyle=orthogonalEdgeStyle;rounded=0;orthogonalLoop=1;jettySize=auto;html=1;dashed=1;dashPattern=8 8;" edge="1" parent="1" source="d1k2A2u6-uFPQRD3uo2n-13" target="d1k2A2u6-uFPQRD3uo2n-11">
          <mxGeometry relative="1" as="geometry" />
        </mxCell>
        <mxCell id="d1k2A2u6-uFPQRD3uo2n-13" value="程序计数器 PC" style="rounded=1;whiteSpace=wrap;html=1;" vertex="1" parent="1">
          <mxGeometry x="110" y="240" width="120" height="60" as="geometry" />
        </mxCell>
        <mxCell id="d1k2A2u6-uFPQRD3uo2n-15" value="操作控制器" style="rounded=1;whiteSpace=wrap;html=1;" vertex="1" parent="1">
          <mxGeometry x="430" y="320" width="120" height="60" as="geometry" />
        </mxCell>
        <mxCell id="d1k2A2u6-uFPQRD3uo2n-24" value="算数逻辑单元 ALU" style="rounded=1;whiteSpace=wrap;html=1;" vertex="1" parent="1">
          <mxGeometry x="110" y="780" width="440" height="60" as="geometry" />
        </mxCell>
        <mxCell id="d1k2A2u6-uFPQRD3uo2n-26" value="寄存器 MQ" style="rounded=1;whiteSpace=wrap;html=1;" vertex="1" parent="1">
          <mxGeometry x="430" y="860" width="120" height="60" as="geometry" />
        </mxCell>
        <mxCell id="d1k2A2u6-uFPQRD3uo2n-28" value="存储器" style="rounded=0;whiteSpace=wrap;html=1;fontStyle=1;align=left;verticalAlign=top;fillColor=#1ba1e2;fontColor=#ffffff;strokeColor=#006EAF;" vertex="1" parent="1">
          <mxGeometry x="80" y="520" width="500" height="120" as="geometry" />
        </mxCell>
        <mxCell id="d1k2A2u6-uFPQRD3uo2n-33" value="时序产生器" style="rounded=1;whiteSpace=wrap;html=1;" vertex="1" parent="1">
          <mxGeometry x="110" y="320" width="280" height="60" as="geometry" />
        </mxCell>
        <mxCell id="d1k2A2u6-uFPQRD3uo2n-34" value="寄存器 ACC" style="rounded=1;whiteSpace=wrap;html=1;" vertex="1" parent="1">
          <mxGeometry x="110" y="860" width="120" height="60" as="geometry" />
        </mxCell>
        <mxCell id="d1k2A2u6-uFPQRD3uo2n-35" value="..." style="rounded=1;whiteSpace=wrap;html=1;" vertex="1" parent="1">
          <mxGeometry x="270" y="860" width="120" height="60" as="geometry" />
        </mxCell>
        <mxCell id="d1k2A2u6-uFPQRD3uo2n-36" value="数据寄存器 MDR" style="rounded=1;whiteSpace=wrap;html=1;" vertex="1" parent="1">
          <mxGeometry x="110" y="550" width="120" height="60" as="geometry" />
        </mxCell>
        <mxCell id="d1k2A2u6-uFPQRD3uo2n-37" value="地址寄存器 MAR" style="rounded=1;whiteSpace=wrap;html=1;" vertex="1" parent="1">
          <mxGeometry x="270" y="550" width="120" height="60" as="geometry" />
        </mxCell>
        <mxCell id="d1k2A2u6-uFPQRD3uo2n-38" value="存储体" style="rounded=1;whiteSpace=wrap;html=1;" vertex="1" parent="1">
          <mxGeometry x="430" y="550" width="120" height="60" as="geometry" />
        </mxCell>
        <mxCell id="d1k2A2u6-uFPQRD3uo2n-40" value="" style="html=1;shadow=0;dashed=0;align=center;verticalAlign=middle;shape=mxgraph.arrows2.twoWayArrow;dy=0.6;dx=35;direction=south;" vertex="1" parent="1">
          <mxGeometry x="315" y="420" width="30" height="90" as="geometry" />
        </mxCell>
        <mxCell id="d1k2A2u6-uFPQRD3uo2n-41" value="" style="html=1;shadow=0;dashed=0;align=center;verticalAlign=middle;shape=mxgraph.arrows2.twoWayArrow;dy=0.6;dx=35;direction=south;" vertex="1" parent="1">
          <mxGeometry x="315" y="650" width="30" height="90" as="geometry" />
        </mxCell>
        <mxCell id="d1k2A2u6-uFPQRD3uo2n-42" value="输入设备" style="rounded=1;whiteSpace=wrap;html=1;fillColor=#647687;strokeColor=#314354;fontColor=#ffffff;" vertex="1" parent="1">
          <mxGeometry x="-220" y="550" width="120" height="60" as="geometry" />
        </mxCell>
        <mxCell id="d1k2A2u6-uFPQRD3uo2n-43" value="" style="html=1;shadow=0;dashed=0;align=center;verticalAlign=middle;shape=mxgraph.arrows2.arrow;dy=0.6;dx=40;notch=0;" vertex="1" parent="1">
          <mxGeometry x="-60" y="545" width="100" height="70" as="geometry" />
        </mxCell>
        <mxCell id="d1k2A2u6-uFPQRD3uo2n-44" value="输出设备" style="rounded=1;whiteSpace=wrap;html=1;fillColor=#60a917;strokeColor=#2D7600;fontColor=#ffffff;" vertex="1" parent="1">
          <mxGeometry x="750" y="550" width="120" height="60" as="geometry" />
        </mxCell>
        <mxCell id="d1k2A2u6-uFPQRD3uo2n-45" value="" style="html=1;shadow=0;dashed=0;align=center;verticalAlign=middle;shape=mxgraph.arrows2.arrow;dy=0.6;dx=40;notch=0;" vertex="1" parent="1">
          <mxGeometry x="620" y="545" width="100" height="70" as="geometry" />
        </mxCell>
      </root>
    </mxGraphModel>
  </diagram>
</mxfile>
